HIERARCHY
ROOT Hips
{
	OFFSET 0.000000 0.000000 0.000000 
	CHANNELS 6 Xposition Yposition Zposition Yrotation Zrotation Xrotation 
	JOINT Lumbar
	{
		OFFSET 0.000000 0.000000 0.000000 
		CHANNELS 3 Zrotation Xrotation Yrotation
		JOINT Neck
		{
			OFFSET 0.000000 0.445665 0.000000 
			CHANNELS 3 Zrotation Xrotation Yrotation
			End Site
			{
				OFFSET 0.000000 0.227535 0.000000 
			}
		}
		JOINT RightShoulder
		{
			OFFSET 0.019635 0.377685 0.194865 
			CHANNELS 3 Zrotation Xrotation Yrotation
			JOINT RightElbow
			{
				OFFSET 0.000000 -0.243375 0.000000 
				CHANNELS 2 Zrotation Yrotation
				JOINT RightWrist
				{
					OFFSET 0.000000 -0.264825 0.000000 
					CHANNELS 2 Zrotation Xrotation
					End Site
					{
						OFFSET 0.006600 -0.176220 0.000990 
					}
				}
			}
		}
		JOINT LeftShoulder
		{
			OFFSET 0.019635 0.377685 -0.194865 
			CHANNELS 3 Zrotation Xrotation Yrotation
			JOINT LeftElbow
			{
				OFFSET 0.000000 -0.243375 0.000000 
				CHANNELS 2 Zrotation Yrotation
				JOINT LeftWrist
				{
					OFFSET 0.000000 -0.264825 0.000000 
					CHANNELS 2 Zrotation Xrotation
					End Site
					{
						OFFSET 0.006600 -0.176220 -0.000990 
					}
				}
			}
		}
	}
	JOINT RightHip
	{
		OFFSET 0.052140 -0.069960 0.075570 
		CHANNELS 3 Zrotation Xrotation Yrotation
		JOINT RightKnee
		{
			OFFSET 0.000000 -0.402270 0.000000 
			CHANNELS 1 Zrotation
			JOINT RightAnkle
			{
				OFFSET 0.000000 -0.404085 0.000000 
				CHANNELS 3 Zrotation Xrotation Yrotation
				End Site
				{
					OFFSET 0.204105 -0.089430 0.008415 
				}
			}
		}
	}
	JOINT LeftHip
	{
		OFFSET 0.052140 -0.069960 -0.075570 
		CHANNELS 3 Zrotation Xrotation Yrotation
		JOINT LeftKnee
		{
			OFFSET 0.000000 -0.402270 0.000000 
			CHANNELS 1 Zrotation
			JOINT LeftAnkle
			{
				OFFSET 0.000000 -0.404085 0.000000 
				CHANNELS 3 Zrotation Xrotation Yrotation
				End Site
				{
					OFFSET 0.204105 -0.089430 -0.008415 
				}
			}
		}
	}
}
MOTION
Frames: 33
Frame Time: 0.02
-0.00123 -0.00021 -0.00327 -169.28894 -32.58484 -3.47727 46.69089 2.1729 -4.61863 -10.42725 3.65597 -0.52386 -22.26817 -9.8133 0.40841 35.47464 90.4853 7.40103 -0.51824 -28.28367 10.32063 7.68225 43.28029 -144.10166 26.3505 -6.38255 34.80631 -0.59495 -4.02202 -20.98471 -8.99425 -5.145 -3.54395 36.44959 10.01579 0.52579 -26.80096 -8.84898 4.95362 3.3924
-0.00079 -0.00017 -0.0021 -169.1452 -32.57336 -3.44272 46.6505 2.15954 -4.66251 -10.45226 3.67361 -0.52406 -22.31706 -9.89757 0.31181 35.44765 90.50409 7.40823 -0.51047 -28.15945 10.60974 6.6568 43.21427 -139.44937 25.13624 -5.72269 34.7779 -0.75306 -4.31858 -20.98282 -8.98604 -5.13494 -3.53272 36.47289 9.8953 0.4595 -26.79931 -8.84723 4.9561 3.39383
-0.00035 -0.00014 -0.00093 -169.00176 -32.56217 -3.4083 46.61042 2.14616 -4.70622 -10.47727 3.69155 -0.52426 -22.36572 -9.98161 0.21542 35.42053 90.5227 7.41527 -0.50273 -28.03548 10.89794 5.63435 43.14849 -134.81135 23.92573 -5.06483 34.74987 -0.91095 -4.61499 -20.98099 -8.97779 -5.12484 -3.52149 36.49648 9.77516 0.39387 -26.79774 -8.84541 4.95852 3.39522
9e-05 -0.0001 0.00023 -168.85843 -32.55078 -3.37386 46.57019 2.13284 -4.74996 -10.50221 3.70918 -0.52445 -22.41446 -10.06563 0.11911 35.39361 90.54141 7.42242 -0.49498 -27.91162 11.18616 4.61202 43.08268 -130.17338 22.71521 -4.407 34.7216 -1.06862 -4.91082 -20.97912 -8.96958 -5.11479 -3.51028 36.51978 9.65503 0.32786 -26.79612 -8.84366 4.96098 3.39664
0.00053 -7e-05 0.0014 -168.71489 -32.53899 -3.33929 46.52956 2.11954 -4.79389 -10.52711 3.72643 -0.52465 -22.46339 -10.14987 0.02263 35.36684 90.56037 7.42981 -0.4872 -27.78758 11.47532 3.58679 43.01661 -125.52116 21.50094 -3.74716 34.69284 -1.22637 -5.20635 -20.97717 -8.96144 -5.10483 -3.49911 36.54263 9.53456 0.26102 -26.79439 -8.84199 4.96351 3.39811
0.00097 -3e-05 0.00257 -168.57168 -32.52906 -3.3052 46.49063 2.10598 -4.83711 -10.55238 3.74585 -0.52485 -22.51147 -10.23348 -0.07357 35.33895 90.57824 7.43612 -0.47956 -27.66376 11.76149 2.57025 42.95145 -120.91324 20.29842 -3.09352 34.66631 -1.38453 -5.50452 -20.9756 -8.95298 -5.09442 -3.48776 36.56776 9.41511 0.19795 -26.79314 -8.83987 4.96571 3.39935
0.0014 0 0.00373 -168.42792 -32.51545 -3.27015 46.44838 2.093 -4.88175 -10.57684 3.76072 -0.52504 -22.56133 -10.31829 -0.1702 35.31347 90.59826 7.44456 -0.47163 -27.53962 12.05331 1.53734 42.88451 -116.22156 19.07365 -2.42815 34.63536 -1.54177 -5.79747 -20.97328 -8.94513 -5.08488 -3.47675 36.58834 9.29376 0.12739 -26.79095 -8.83866 4.96857 3.40104
0.00185 4e-05 0.0049 -168.28472 -32.50514 -3.23602 46.40905 2.07943 -4.925 -10.60213 3.78009 -0.52524 -22.60931 -10.40195 -0.26648 35.28555 90.61633 7.45106 -0.46397 -27.41578 12.34 0.51955 42.81926 -111.60657 17.86924 -1.77354 34.60845 -1.69972 -6.09447 -20.97162 -8.93681 -5.07462 -3.46547 36.61302 9.17413 0.06369 -26.78961 -8.83661 4.97082 3.40232
0.00229 7e-05 0.00608 -168.1419 -32.49926 -3.20289 46.37389 2.06534 -4.96688 -10.62812 3.80383 -0.52546 -22.65596 -10.4844 -0.36224 35.25549 90.63186 7.45506 -0.45663 -27.29222 12.62023 -0.48033 42.75587 -107.08556 16.68984 -1.13206 34.58667 -1.85918 -6.3997 -20.97087 -8.92754 -5.06316 -3.45366 36.64314 9.05666 0.00859 -26.78937 -8.83353 4.97232 3.40306
0.00271 0.0001 0.00719 -167.99597 -32.46909 -3.16362 46.31656 2.05483 -5.01765 -10.64913 3.79905 -0.5256 -22.71317 -10.5744 -0.46071 35.24026 90.66157 7.47308 -0.44744 -27.16679 12.93707 -1.58502 42.68117 -102.02438 15.36687 -0.41494 34.53595 -2.0119 -6.66746 -20.96519 -8.92259 -5.05763 -3.44433 36.64325 8.92694 -0.09534 -26.78298 -8.83637 4.97812 3.40683
0.00319 0.00015 0.00846 -167.85723 -32.48938 -3.13758 46.30482 2.03642 -5.04901 -10.68125 3.85656 -0.5259 -22.74627 -10.64809 -0.55362 35.19214 90.66166 7.46178 -0.44214 -27.04551 13.17703 -2.46737 42.63073 -98.10287 14.3467 0.1425 34.54586 -2.17758 -7.00785 -20.96974 -8.90925 -5.0402 -3.43012 36.70581 8.82296 -0.09671 -26.78943 -8.82673 4.97488 3.40425
0.00383 0.00024 0.01017 -167.73368 -32.6562 -3.14607 46.429 1.99909 -5.03181 -10.73923 4.06918 -0.52662 -22.7265 -10.6794 -0.63074 35.06553 90.58039 7.36781 -0.4468 -26.93408 13.20122 -2.74375 42.644 -97.33867 14.16625 0.25816 34.7278 -2.38976 -7.60405 -21.00435 -8.86659 -4.98474 -3.39922 36.94904 8.79111 0.18946 -26.83263 -8.7824 4.94623 3.38378
0.00455 0.00035 0.01205 -167.61851 -32.87227 -3.16824 46.59682 1.95334 -4.99428 -10.80914 4.34709 -0.5275 -22.67938 -10.69364 -0.703 34.90338 90.47174 7.24525 -0.45488 -26.82723 13.14924 -2.79615 42.68206 -97.71366 14.28817 0.21409 34.96986 -2.6131 -8.26376 -21.04904 -8.81658 -4.91823 -3.36396 37.25338 8.78478 0.57708 -26.88843 -8.72568 4.90865 3.35707
0.00525 0.00045 0.01386 -167.5021 -33.06045 -3.18527 46.73776 1.90965 -4.96292 -10.87675 4.60571 -0.52831 -22.63693 -10.71448 -0.77702 34.7502 90.37269 7.13669 -0.46262 -26.71916 13.13509 -2.94825 42.71071 -97.54722 14.26598 0.24557 35.18032 -2.824 -8.85617 -21.08759 -8.77413 -4.86039 -3.33292 37.52354 8.76591 0.91485 -26.93749 -8.67482 4.87546 3.33347
0.00588 0.00056 0.01564 -167.37362 -33.27167 -3.19761 46.90906 1.87338 -4.94429 -10.93157 4.82144 -0.52912 -22.62992 -10.74125 -0.85032 34.62861 90.27595 7.02209 -0.46776 -26.60695 13.10668 -3.10849 42.73191 -97.48152 14.27279 0.26453 35.40773 -3.06535 -9.60667 -21.132 -8.71418 -4.78752 -3.29268 37.82043 8.75138 1.27036 -26.99093 -8.62269 4.84064 3.30852
0.00667 0.00066 0.01751 -167.27384 -33.44697 -3.22316 47.02683 1.81967 -4.89455 -11.01538 5.14095 -0.52999 -22.53918 -10.75025 -0.92722 34.43114 90.17997 6.91547 -0.47597 -26.50506 13.09061 -3.19896 42.77411 -97.47815 14.2907 0.27133 35.61564 -3.24675 -10.04835 -21.16755 -8.68852 -4.74285 -3.27023 38.07671 8.73348 1.61082 -27.03814 -8.57062 4.80738 3.28512
0.00781 0.00072 0.01966 -167.23838 -33.50726 -3.28005 46.99101 1.71989 -4.76202 -11.18023 5.7394 -0.53073 -22.25244 -10.72642 -0.98643 34.04672 89.98779 6.81868 -0.51907 -26.42525 13.1216 -3.15027 42.87077 -97.34587 14.26576 0.28742 35.74212 -3.25247 -9.57441 -21.16895 -8.76324 -4.78302 -3.3009 38.20027 8.70316 1.90328 -27.06574 -8.51887 4.7782 3.26587
0.00912 0.00078 0.0219 -167.23433 -33.53027 -3.35013 46.89863 1.60294 -4.59926 -11.37299 6.43809 -0.53159 -21.87647 -10.68317 -1.05416 33.58436 89.81567 6.73403 -0.56031 -26.35653 13.16881 -3.03959 42.98675 -97.24087 14.24133 0.29609 35.84972 -3.19872 -8.79592 -21.16307 -8.87208 -4.85117 -3.34909 38.28173 8.66809 2.17394 -27.08645 -8.46816 4.75136 3.24871
0.01038 0.00085 0.02406 -167.22383 -33.57291 -3.41526 46.82925 1.49377 -4.45153 -11.55055 7.08587 -0.53257 -21.52342 -10.64075 -1.13769 33.14888 89.70483 6.65705 -0.58419 -26.28637 13.21222 -2.95799 43.09284 -97.13747 14.21627 0.30584 35.97388 -3.17717 -8.18837 -21.16446 -8.96268 -4.90372 -3.38732 38.38627 8.63298 2.44211 -27.10997 -8.41884 4.72505 3.2317
0.0115 0.0009 0.02636 -167.17889 -33.60634 -3.47626 46.77386 1.38408 -4.29755 -11.73963 7.76009 -0.5328 -21.24628 -10.63096 -1.1406 32.74912 89.30101 6.52535 -0.68396 -26.2017 13.23751 -2.86402 43.20645 -97.01436 14.20355 0.31994 36.0647 -3.13462 -7.44728 -21.14691 -9.06431 -4.96803 -3.43378 38.47681 8.60754 2.76492 -27.13554 -8.36118 4.69174 3.20983
0.01297 0.00098 0.0284 -167.21516 -33.64895 -3.54907 46.67402 1.27188 -4.1498 -11.91058 8.40027 -0.53466 -20.78719 -10.54947 -1.31025 32.25575 89.506 6.50844 -0.62652 -26.14914 13.30587 -2.78493 43.30617 -96.92444 14.1612 0.32498 36.22186 -3.12099 -6.90915 -21.17017 -9.15149 -5.01467 -3.46739 38.58507 8.56112 2.96898 -27.15472 -8.32137 4.67366 3.19865
0.01529 0.00113 0.02971 -167.45004 -33.73043 -3.64909 46.47694 1.15372 -4.02545 -12.02957 8.93837 -0.54066 -19.87344 -10.26897 -1.96752 31.53311 91.44202 6.82681 -0.12364 -26.18824 13.4856 -2.75559 43.38413 -96.91011 14.03644 0.31028 36.54892 -3.20658 -7.02454 -21.28127 -9.18756 -5.00556 -3.46078 38.75823 8.45207 2.83464 -27.16079 -8.33028 4.69729 3.21677
0.01795 0.0013 0.03075 -167.76901 -33.82165 -3.76086 46.23515 1.03426 -3.90855 -12.1282 9.4355 -0.54833 -18.7752 -9.91798 -2.78752 30.71731 93.97852 7.25655 0.53533 -26.25806 13.70933 -2.74596 43.44335 -96.92455 13.88054 0.28687 36.94705 -3.32244 -7.35189 -21.4392 -9.20845 -4.9778 -3.44075 38.94959 8.32277 2.58276 -27.16013 -8.35744 4.73626 3.24561
0.02048 0.00147 0.03189 -168.06103 -33.90486 -3.86867 46.00538 0.91756 -3.7894 -12.2331 9.9401 -0.55547 -17.74426 -9.60336 -3.51305 29.93757 96.2061 7.6214 1.11497 -26.31021 13.91541 -2.73241 43.49707 -96.92584 13.73749 0.26597 37.3233 -3.42116 -7.5685 -21.59239 -9.23823 -4.95872 -3.42722 39.12822 8.20678 2.39609 -27.16054 -8.3763 4.76799 3.26928
0.02292 0.0016 0.03313 -168.30604 -34.00067 -3.97125 45.80682 0.79114 -3.66522 -12.35229 10.49473 -0.56175 -16.77905 -9.27043 -4.32285 29.18128 98.59227 8.0466 1.72961 -26.37892 14.11136 -2.69432 43.61066 -96.92789 13.59957 0.25078 37.65244 -3.53186 -7.83139 -21.67316 -9.2609 -4.93974 -3.41264 39.32309 8.07435 2.16392 -27.16885 -8.39445 4.80056 3.294
0.02562 0.00181 0.03409 -168.66923 -34.0746 -4.08717 45.53574 0.68482 -3.55262 -12.43561 10.93484 -0.57012 -15.63553 -8.95827 -4.99896 28.35543 100.78316 8.37281 2.30901 -26.41964 14.33957 -2.71408 43.59486 -96.93624 13.44425 0.22179 38.09996 -3.62586 -8.05716 -21.91893 -9.29419 -4.91574 -3.3968 39.49045 7.97011 1.9926 -27.15954 -8.41935 4.83549 3.31939
0.02897 0.00222 0.03441 -169.33135 -34.07165 -4.23817 45.05542 0.63501 -3.47987 -12.43267 11.06213 -0.5845 -14.03528 -8.72833 -5.24091 27.35728 102.35569 8.39511 2.74725 -26.38152 14.63873 -2.8792 43.22698 -96.94023 13.2423 0.1569 38.8274 -3.66337 -8.08654 -22.5816 -9.36164 -4.88281 -3.38103 39.56381 7.96052 2.07443 -27.10014 -8.44991 4.86872 3.34104
0.03254 0.00269 0.03445 -170.11 -34.04859 -4.40172 44.5079 0.60548 -3.41701 -12.39283 11.07645 -0.6008 -12.26484 -8.52033 -5.34961 26.29334 103.70185 8.3147 3.14532 -26.31331 14.97035 -3.10413 42.73006 -96.95229 13.02535 0.07848 39.67522 -3.68331 -8.08011 -23.4122 -9.43997 -4.84547 -3.36444 39.61066 7.97828 2.21302 -27.02382 -8.48793 4.90447 3.36345
0.03598 0.00312 0.03458 -170.84043 -34.04488 -4.55893 44.00417 0.56626 -3.34329 -12.36452 11.14617 -0.61578 -10.57815 -8.29743 -5.5329 25.26187 105.10247 8.28318 3.56594 -26.25452 15.29163 -3.30807 42.29079 -96.96971 12.81893 0.00629 40.48988 -3.71427 -8.11981 -24.18592 -9.51236 -4.8095 -3.3478 39.67998 7.97515 2.2863 -26.95732 -8.52848 4.94219 3.38761
0.03957 0.00359 0.03487 -171.55639 -34.00074 -4.71997 43.44191 0.5288 -3.29615 -12.35729 11.19687 -0.63271 -8.85516 -8.09309 -5.65336 24.21611 106.71354 8.24544 3.9754 -26.2135 15.595 -3.48586 41.85205 -96.94903 12.59448 -0.06654 41.22395 -3.73577 -8.04271 -24.88597 -9.58829 -4.77473 -3.33198 39.70979 8.00508 2.51443 -26.88166 -8.54586 4.96793 3.40373
0.04288 0.004 0.03477 -172.32583 -34.03297 -4.87493 42.98745 0.49275 -3.19656 -12.29809 11.26153 -0.64603 -7.17324 -7.85592 -5.88252 23.18587 107.84337 8.1958 4.39463 -26.1295 15.94383 -3.7329 41.38562 -97.01055 12.40602 -0.14114 42.14361 -3.76948 -8.19508 -25.77025 -9.65983 -4.73771 -3.31505 39.81049 7.97537 2.44488 -26.82106 -8.61153 5.01823 3.4361
0.04563 0.00425 0.03367 -173.24143 -34.30579 -5.01763 42.83687 0.45344 -2.94401 -12.10072 11.38663 -0.64875 -5.61868 -7.52645 -6.34069 22.21552 107.52959 8.12914 4.8658 -25.92052 16.40119 -4.14849 40.84252 -97.28426 12.30639 -0.21721 43.63011 -3.8664 -9.01071 -27.1942 -9.71454 -4.68646 -3.28986 40.15459 7.75302 1.45479 -26.80675 -8.82163 5.14238 3.51782
0.04803 0.00443 0.03218 -174.20107 -34.65129 -5.15212 42.79941 0.41522 -2.63931 -11.85327 11.53091 -0.64779 -4.11807 -7.16335 -6.92876 21.26458 106.76333 8.05501 5.3443 -25.67172 16.90454 -4.6323 40.28262 -97.64175 12.24589 -0.29448 45.28246 -3.97144 -10.05288 -28.78364 -9.76476 -4.63479 -3.26456 40.56278 7.47366 0.17891 -26.80805 -9.07762 5.28984 3.61498
